<?xml version="1.0" encoding="utf-8"?>
<!-- Generator: Adobe Illustrator 12.0.1, SVG Export Plug-In . SVG Version: 6.00 Build 51448)  -->
<!DOCTYPE svg PUBLIC "-//W3C//DTD SVG 1.1//EN" "http://www.w3.org/Graphics/SVG/1.1/DTD/svg11.dtd" [
	<!ENTITY ns_svg "http://www.w3.org/2000/svg">
	<!ENTITY ns_xlink "http://www.w3.org/1999/xlink">
]>
<svg  version="1.1" id="Layer_1" xmlns="&ns_svg;" xmlns:xlink="&ns_xlink;" width="58.69" height="58.69"
	 viewBox="0 0 58.69 58.69" overflow="visible" enable-background="new 0 0 58.69 58.69" xml:space="preserve">
<g>
	<g>
		<path d="M56.69,29.35c0,15.08-12.27,27.34-27.35,27.34S2,44.43,2,29.35C2,14.27,14.27,2,29.35,2S56.69,14.27,56.69,29.35z
			 M29.35,0C13.17,0,0,13.17,0,29.35c0,16.18,13.17,29.34,29.35,29.34s29.35-13.16,29.35-29.34C58.69,13.17,45.53,0,29.35,0z"/>
	</g>
	<g>
		<path d="M48.75,24.25l-20.3,7.61h0.7L9.94,24.66l0,1.87l20.3-7.61h-0.7l19.21,7.2V24.25z M29.54,17.05l-20.3,7.61l-2.5,0.94
			l2.5,0.94l19.21,7.21l0.35,0.13l0.35-0.13l20.3-7.61l2.5-0.94l-2.5-0.94l-19.21-7.2l-0.35-0.13L29.54,17.05z"/>
	</g>
	<g>
		<path d="M14.74,27.9v4.75c0,0.55,0.45,1,1,1c-0.55,0-0.97-0.45-0.97-1c0-0.11,0.01-0.16,0.04-0.26c-0.02,0.06-0.07,0.2-0.07,0.38
			c0,3.85,6.28,6.75,14.61,6.75s14.61-2.9,14.61-6.75c0-0.11-0.03-0.28-0.06-0.38c0.01,0.03,0.04,0.13,0.04,0.25c0,0.55-0.45,1-1,1
			c0.55,0,1.03-0.45,1.03-1v-5.16c0-0.33-0.16-0.64-0.43-0.82c-0.27-0.19-0.61-0.23-0.92-0.11l-14.15,5.31
			c0.23-0.08,0.48-0.08,0.7,0l-13.06-4.9c-0.31-0.12-0.65-0.07-0.92,0.11C14.9,27.27,14.74,27.57,14.74,27.9z M29.15,33.74
			l14.15-5.31c-0.31,0.12-0.65,0.07-0.92-0.11c-0.27-0.19-0.43-0.49-0.43-0.82v5.16c0-0.55,0.45-1,1-1c-0.55,0-1.03,0.45-1.03,1
			c0,0.11,0.03,0.28,0.06,0.38c-0.01-0.03-0.04-0.13-0.04-0.25c0,2.25-5.18,4.75-12.61,4.75c-7.43,0-12.61-2.5-12.61-4.75
			c0,0.11-0.01,0.16-0.04,0.26c0.02-0.06,0.07-0.2,0.07-0.38c0-0.55-0.45-1-1-1c0.55,0,0.97,0.45,0.97,1V27.9
			c0,0.33-0.16,0.64-0.43,0.82c-0.27,0.19-0.61,0.23-0.92,0.11l13.06,4.9C28.67,33.82,28.92,33.82,29.15,33.74z"/>
	</g>
	<g>
		<ellipse cx="46.63" cy="40.98" rx="1.53" ry="2.34"/>
	</g>
	<g>
		<rect x="45.63" y="25.69" width="2" height="15.28"/>
	</g>
</g>
</svg>
