<?xml version="1.0" encoding="utf-8"?>
<!-- Generator: Adobe Illustrator 12.0.1, SVG Export Plug-In . SVG Version: 6.00 Build 51448)  -->
<!DOCTYPE svg PUBLIC "-//W3C//DTD SVG 1.1//EN" "http://www.w3.org/Graphics/SVG/1.1/DTD/svg11.dtd" [
	<!ENTITY ns_svg "http://www.w3.org/2000/svg">
	<!ENTITY ns_xlink "http://www.w3.org/1999/xlink">
]>
<svg  version="1.1" id="Layer_1" xmlns="&ns_svg;" xmlns:xlink="&ns_xlink;" width="58.69" height="58.69"
	 viewBox="0 0 58.69 58.69" overflow="visible" enable-background="new 0 0 58.69 58.69" xml:space="preserve">
<g>
	<g>
		<path d="M56.69,29.35c0,15.08-12.27,27.35-27.35,27.35C14.27,56.69,2,44.43,2,29.35C2,14.27,14.27,2,29.35,2
			C44.43,2,56.69,14.27,56.69,29.35z M29.35,0C13.16,0,0,13.16,0,29.35c0,16.18,13.16,29.35,29.35,29.35s29.35-13.17,29.35-29.35
			C58.69,13.16,45.53,0,29.35,0z"/>
	</g>
	<g>
		<g>
			<path fill-rule="evenodd" clip-rule="evenodd" fill="#FFFFFF" d="M11.5,18.49c3.27-0.13,4.26-3.12,4.6-6.06
				C13.79,13.56,11.11,14.78,11.5,18.49z M49.37,21.56c2.14-1.68,1.23-5.99-0.16-7.84C47.84,15.58,47.06,20.16,49.37,21.56z
				 M9.24,21.56c2.43-1.22,1.66-6.07,0.16-7.76C8.13,15.72,7.21,19.8,9.24,21.56z M48.72,23.52c-0.07-3.65-2.7-4.59-5.33-5.54
				C44.25,20.79,45.07,23.65,48.72,23.52z M9.97,23.61c3.57,0.13,4.62-2.85,5.25-5.55C12.61,19,10.03,19.97,9.97,23.61z M50.9,27.36
				c2.23-1,2.42-5.2,1.29-7.68C50.63,21.24,48.76,25.1,50.9,27.36z M7.87,27.45c1.95-2.4,0.28-6.21-1.45-7.68
				C5.42,22.4,5.56,26.48,7.87,27.45z M8.67,30.26c2.88-0.43,3.9-3.28,3.64-6.74C10.42,24.96,7.86,26.53,8.67,30.26z M50.02,30.26
				c0.78-3.73-1.67-5.44-3.72-6.74C46.21,27.17,47.19,29.69,50.02,30.26z M50.66,32.91c2.71-0.63,3.82-3.41,3.71-6.74
				C52.37,27.47,49.6,29.21,50.66,32.91z M8.11,32.91c0.82-3.81-1.74-5.42-3.88-6.66C4.37,29.69,5.24,32.36,8.11,32.91z
				 M10.05,36.15c2.34-0.74,3.13-4.68,2.02-7.51C10.57,30.16,8.29,33.31,10.05,36.15z M48.72,36.07c1.54-2.93-0.5-6.12-2.26-7.42
				C45.7,31.77,46.25,35.35,48.72,36.07z M46.87,41.61c1.91-2.39,0.12-6.11-1.37-7.68C44.38,36.36,44.42,40.83,46.87,41.61z
				 M11.9,41.7c2.27-0.88,2.52-5.4,1.21-7.68C11.67,35.61,9.87,39.44,11.9,41.7z M43.31,45.11c2.1-1.61,1.34-6.03-0.08-7.85
				C41.9,39.16,40.92,43.66,43.31,45.11z M10.86,41.27c-0.46-3.01-3.2-4.07-6.46-3.84C5.73,39.5,7.44,42.21,10.86,41.27z
				 M15.54,45.11c2.14-1.62,1.31-6.01-0.16-7.77C14.1,39.21,13.16,43.78,15.54,45.11z M47.84,41.18c2.71,0.99,4.47-1.03,5.57-2.56
				c0.31-0.43,0.79-0.82,0.73-1.28C50.72,37.23,48.4,38.28,47.84,41.18z M20.3,47.84c1.61-3.09-0.68-6.03-2.42-7.42
				C17.18,43.64,17.89,47.11,20.3,47.84z M38.39,47.76c2.41-0.63,3.2-4.33,2.34-7.34C39.04,41.82,36.79,44.73,38.39,47.76z
				 M44.61,44.86c2.93,1.49,5.69-0.76,6.94-2.65C48.46,41.53,45.19,42.12,44.61,44.86z M7.14,42.3c1.28,1.85,4.14,4.18,6.94,2.56
				C13.49,42.2,10.18,41.57,7.14,42.3z M31.69,49.38c3.59,0.18,4.78-2.63,5.57-5.12C34.42,44.93,31.8,45.83,31.69,49.38z M27,49.38
				c-0.18-3.48-2.7-4.49-5.65-5.04C22.33,46.93,23.54,49.71,27,49.38z M40.57,47.76c2.06,2.04,5.89,0.49,7.27-1.19
				C45.54,45.41,41.51,45.13,40.57,47.76z M10.77,46.73c1.66,1.45,5.18,3.15,7.35,1.11C17.28,45.17,12.89,45.41,10.77,46.73z
				 M15.38,50.66c2.26,1.19,6.39,1.24,7.35-1.2C20.58,47.34,16.87,48.94,15.38,50.66z M35.97,49.55c0.72,0.81,1.57,1.71,2.99,1.88
				c1.56,0.18,3.09-0.39,4.36-0.77C41.98,48.89,37.89,47.22,35.97,49.55z M28.38,50.83c0.29,1.02,2.2,0.79,1.94-0.69
				c-0.08-0.46-0.43-0.96-1.29-0.68C28.53,49.63,28.14,49.99,28.38,50.83z M31.04,51c0.7,2.49,4.52,2.85,7.1,1.88
				C37.06,51.16,33.49,49.04,31.04,51z"/>
		</g>
		<g>
			<path fill-rule="evenodd" clip-rule="evenodd" d="M42.51,12.35c0.03,0,0.05,0,0.08,0c2.28,1.2,5.03,2.36,4.6,6.15
				C43.93,18.23,43.04,15.48,42.51,12.35z"/>
		</g>
		<g>
			<path fill-rule="evenodd" clip-rule="evenodd" d="M16.1,12.43c-0.34,2.94-1.33,5.93-4.6,6.06C11.11,14.78,13.79,13.56,16.1,12.43
				z"/>
		</g>
		<g>
			<path fill-rule="evenodd" clip-rule="evenodd" d="M49.21,13.71c1.39,1.86,2.3,6.16,0.16,7.84
				C47.06,20.16,47.84,15.58,49.21,13.71z"/>
		</g>
		<g>
			<path fill-rule="evenodd" clip-rule="evenodd" d="M9.4,13.79c1.5,1.69,2.27,6.54-0.16,7.76C7.21,19.8,8.13,15.72,9.4,13.79z"/>
		</g>
		<g>
			<path fill-rule="evenodd" clip-rule="evenodd" d="M43.4,17.98c2.63,0.95,5.26,1.89,5.33,5.54C45.07,23.65,44.25,20.79,43.4,17.98
				z"/>
		</g>
		<g>
			<path fill-rule="evenodd" clip-rule="evenodd" d="M15.21,18.06c-0.62,2.7-1.68,5.68-5.25,5.55C10.03,19.97,12.61,19,15.21,18.06z
				"/>
		</g>
		<g>
			<path fill-rule="evenodd" clip-rule="evenodd" d="M52.19,19.69c1.12,2.47,0.94,6.67-1.29,7.68
				C48.76,25.1,50.63,21.24,52.19,19.69z"/>
		</g>
		<g>
			<path fill-rule="evenodd" clip-rule="evenodd" d="M6.42,19.77c1.73,1.47,3.4,5.28,1.45,7.68C5.56,26.48,5.42,22.4,6.42,19.77z"/>
		</g>
		<g>
			<path fill-rule="evenodd" clip-rule="evenodd" d="M12.31,23.52c0.26,3.46-0.75,6.32-3.64,6.74
				C7.86,26.53,10.42,24.96,12.31,23.52z"/>
		</g>
		<g>
			<path fill-rule="evenodd" clip-rule="evenodd" d="M46.3,23.52c2.05,1.3,4.49,3.01,3.72,6.74C47.19,29.69,46.21,27.17,46.3,23.52z
				"/>
		</g>
		<g>
			<path fill-rule="evenodd" clip-rule="evenodd" d="M54.38,26.17c0.11,3.33-1,6.11-3.71,6.74C49.6,29.21,52.37,27.47,54.38,26.17z"
				/>
		</g>
		<g>
			<path fill-rule="evenodd" clip-rule="evenodd" d="M4.23,26.25c2.14,1.24,4.7,2.84,3.88,6.66C5.24,32.36,4.37,29.69,4.23,26.25z"
				/>
		</g>
		<g>
			<path fill-rule="evenodd" clip-rule="evenodd" d="M12.07,28.64c1.11,2.82,0.32,6.77-2.02,7.51
				C8.29,33.31,10.57,30.16,12.07,28.64z"/>
		</g>
		<g>
			<path fill-rule="evenodd" clip-rule="evenodd" d="M46.46,28.64c1.76,1.3,3.81,4.49,2.26,7.42C46.25,35.35,45.7,31.77,46.46,28.64
				z"/>
		</g>
		<g>
			<path fill-rule="evenodd" clip-rule="evenodd" d="M55.18,32.4c0,0.03,0,0.05,0,0.08C54,34.74,52.68,37.73,49.21,37
				C49.52,33.69,52.12,32.8,55.18,32.4z"/>
		</g>
		<g>
			<path fill-rule="evenodd" clip-rule="evenodd" d="M3.51,32.57c0-0.03,0-0.06,0-0.09c3.13,0.36,5.73,1.28,5.97,4.7
				C5.93,37.59,4.74,34.87,3.51,32.57z"/>
		</g>
		<g>
			<path fill-rule="evenodd" clip-rule="evenodd" d="M45.49,33.93c1.5,1.57,3.28,5.29,1.37,7.68
				C44.42,40.83,44.38,36.36,45.49,33.93z"/>
		</g>
		<g>
			<path fill-rule="evenodd" clip-rule="evenodd" d="M13.11,34.02c1.31,2.28,1.06,6.8-1.21,7.68C9.87,39.44,11.67,35.61,13.11,34.02
				z"/>
		</g>
		<g>
			<path fill-rule="evenodd" clip-rule="evenodd" d="M43.23,37.26c1.42,1.82,2.18,6.24,0.08,7.85
				C40.92,43.66,41.9,39.16,43.23,37.26z"/>
		</g>
		<g>
			<path fill-rule="evenodd" clip-rule="evenodd" d="M4.4,37.43c3.26-0.23,5.99,0.83,6.46,3.84C7.44,42.21,5.73,39.5,4.4,37.43z"/>
		</g>
		<g>
			<path fill-rule="evenodd" clip-rule="evenodd" d="M15.38,37.34c1.47,1.75,2.3,6.14,0.16,7.77C13.16,43.78,14.1,39.21,15.38,37.34
				z"/>
		</g>
		<g>
			<path fill-rule="evenodd" clip-rule="evenodd" d="M54.13,37.34c0.06,0.46-0.41,0.85-0.73,1.28c-1.1,1.53-2.87,3.55-5.57,2.56
				C48.4,38.28,50.72,37.23,54.13,37.34z"/>
		</g>
		<g>
			<path fill-rule="evenodd" clip-rule="evenodd" d="M17.88,40.42c1.75,1.39,4.03,4.34,2.42,7.42
				C17.89,47.11,17.18,43.64,17.88,40.42z"/>
		</g>
		<g>
			<path fill-rule="evenodd" clip-rule="evenodd" d="M40.73,40.42c0.86,3.01,0.07,6.71-2.34,7.34
				C36.79,44.73,39.04,41.82,40.73,40.42z"/>
		</g>
		<g>
			<path fill-rule="evenodd" clip-rule="evenodd" d="M51.55,42.21c-1.26,1.89-4.01,4.14-6.94,2.65
				C45.19,42.12,48.46,41.53,51.55,42.21z"/>
		</g>
		<g>
			<path fill-rule="evenodd" clip-rule="evenodd" d="M14.09,44.86c-2.81,1.62-5.67-0.71-6.94-2.56
				C10.18,41.57,13.49,42.2,14.09,44.86z"/>
		</g>
		<g>
			<path fill-rule="evenodd" clip-rule="evenodd" d="M37.26,44.26c-0.79,2.5-1.98,5.31-5.57,5.12
				C31.8,45.83,34.42,44.93,37.26,44.26z"/>
		</g>
		<g>
			<path fill-rule="evenodd" clip-rule="evenodd" d="M21.35,44.34c2.95,0.55,5.47,1.55,5.65,5.04
				C23.54,49.71,22.33,46.93,21.35,44.34z"/>
		</g>
		<g>
			<path fill-rule="evenodd" clip-rule="evenodd" d="M47.84,46.56c-1.37,1.68-5.21,3.23-7.27,1.19
				C41.51,45.13,45.54,45.41,47.84,46.56z"/>
		</g>
		<g>
			<path fill-rule="evenodd" clip-rule="evenodd" d="M18.12,47.84c-2.17,2.04-5.69,0.34-7.35-1.11
				C12.89,45.41,17.28,45.17,18.12,47.84z"/>
		</g>
		<g>
			<path fill-rule="evenodd" clip-rule="evenodd" d="M22.73,49.47c-0.96,2.43-5.08,2.39-7.35,1.2
				C16.87,48.94,20.58,47.34,22.73,49.47z"/>
		</g>
		<g>
			<path fill-rule="evenodd" clip-rule="evenodd" d="M43.31,50.66c-1.27,0.38-2.8,0.94-4.36,0.77c-1.42-0.16-2.27-1.06-2.99-1.88
				C37.89,47.22,41.98,48.89,43.31,50.66z"/>
		</g>
		<g>
			<path fill-rule="evenodd" clip-rule="evenodd" d="M38.15,52.88c-2.58,0.97-6.4,0.62-7.1-1.88
				C33.49,49.04,37.06,51.16,38.15,52.88z"/>
		</g>
		<g>
			<path fill-rule="evenodd" clip-rule="evenodd" d="M24.18,53.47c-0.38,0-0.76,0-1.13,0c-0.86-0.17-1.72-0.34-2.58-0.51
				c1.24-1.84,4.87-3.92,7.18-1.79C26.96,52.42,25.85,53.25,24.18,53.47z"/>
		</g>
		<g>
			<ellipse fill-rule="evenodd" clip-rule="evenodd" cx="29.35" cy="50.42" rx="0.95" ry="1.01"/>
		</g>
	</g>
</g>
</svg>
