<?xml version="1.0" encoding="utf-8"?>
<!-- Generator: Adobe Illustrator 12.0.1, SVG Export Plug-In . SVG Version: 6.00 Build 51448)  -->
<!DOCTYPE svg PUBLIC "-//W3C//DTD SVG 1.1//EN" "http://www.w3.org/Graphics/SVG/1.1/DTD/svg11.dtd" [
	<!ENTITY ns_svg "http://www.w3.org/2000/svg">
	<!ENTITY ns_xlink "http://www.w3.org/1999/xlink">
]>
<svg  version="1.1" id="Layer_1" xmlns="&ns_svg;" xmlns:xlink="&ns_xlink;" width="58.69" height="58.69"
	 viewBox="0 0 58.69 58.69" overflow="visible" enable-background="new 0 0 58.69 58.69" xml:space="preserve">
<g>
	<g>
		<path d="M56.69,29.35c0,15.08-12.27,27.35-27.35,27.35S2,44.43,2,29.35C2,14.27,14.27,2,29.35,2S56.69,14.27,56.69,29.35z
			 M29.35,0C13.17,0,0,13.17,0,29.35c0,16.18,13.17,29.35,29.35,29.35s29.35-13.16,29.35-29.35C58.69,13.17,45.53,0,29.35,0z"/>
	</g>
	<g>
		<path d="M37.86,8.13H20.84c-2.17,0-3.94,1.77-3.94,3.95v34.53c0,2.18,1.77,3.95,3.94,3.95h17.01c2.17,0,3.94-1.77,3.94-3.95V12.08
			C41.8,9.9,40.03,8.13,37.86,8.13v2c1.07,0,1.94,0.88,1.94,1.95v34.53c0,1.07-0.87,1.95-1.94,1.95H20.84
			c-1.07,0-1.94-0.88-1.94-1.95V12.08c0-1.08,0.87-1.95,1.94-1.95h17.01V8.13z"/>
		<path d="M25.15,11.93h8.4c-0.37,0-0.59-0.24-0.62-0.34c0,0,0,0.02,0,0.04c0,0.03,0,0.04-0.01,0.05c0.03-0.1,0.25-0.34,0.62-0.34
			h-8.4c0.37,0,0.6,0.24,0.63,0.35c0-0.01-0.01-0.03-0.01-0.06c0-0.03,0.01-0.05,0.01-0.05C25.75,11.68,25.52,11.93,25.15,11.93v-2
			c-0.79,0-1.38,0.73-1.38,1.7c0,0.98,0.59,1.71,1.38,1.71h8.4c0.79,0,1.39-0.74,1.39-1.71c0-0.97-0.6-1.7-1.39-1.7h-8.4V11.93z"/>
		<path d="M29.35,45.65c-0.49,0-0.89-0.39-0.89-0.88c0-0.48,0.4-0.88,0.89-0.88c0.48,0,0.87,0.39,0.87,0.88
			C30.22,45.26,29.83,45.65,29.35,45.65v2c1.58,0,2.87-1.29,2.87-2.88c0-1.58-1.29-2.88-2.87-2.88c-1.59,0-2.89,1.29-2.89,2.88
			c0,1.59,1.29,2.88,2.89,2.88V45.65z"/>
		<path d="M38.59,39.22H20.11l1,1V14.1l-1,1h18.48l-1-1v26.12L38.59,39.22z M38.59,13.1H20.11h-1v1v26.12v1h1h18.48h1v-1V14.1v-1
			H38.59z"/>
	</g>
</g>
</svg>
