<?xml version="1.0" encoding="utf-8"?>
<!-- Generator: Adobe Illustrator 12.0.1, SVG Export Plug-In . SVG Version: 6.00 Build 51448)  -->
<!DOCTYPE svg PUBLIC "-//W3C//DTD SVG 1.1//EN" "http://www.w3.org/Graphics/SVG/1.1/DTD/svg11.dtd" [
	<!ENTITY ns_svg "http://www.w3.org/2000/svg">
	<!ENTITY ns_xlink "http://www.w3.org/1999/xlink">
]>
<svg  version="1.1" id="Layer_1" xmlns="&ns_svg;" xmlns:xlink="&ns_xlink;" width="56.69" height="56.69"
	 viewBox="0 0 56.69 56.69" overflow="visible" enable-background="new 0 0 56.69 56.69" xml:space="preserve">
<g>
	<path d="M48.44,28.35c0,11.1-9,20.1-20.1,20.1c-11.08,0-20.08-9-20.08-20.1c0-11.1,9-20.1,20.08-20.1
		C39.44,8.25,48.44,17.25,48.44,28.35z"/>
	<path d="M31.65,0h-6.61l-2.83,28.32h12.26L31.65,0z M25.04,56.69h6.61l2.83-28.32H22.21L25.04,56.69z"/>
	<path d="M0,25.05v6.61l28.32,2.83V22.22L0,25.05z M56.69,31.66v-6.61l-28.32-2.83v12.26L56.69,31.66z"/>
	<path d="M10.63,5.98l-4.67,4.67l18.03,22.02L32.66,24L10.63,5.98z M46.05,50.73l4.67-4.67L32.7,24.04l-8.67,8.67L46.05,50.73z"/>
	<path d="M5.98,46.05l4.67,4.67L32.67,32.7L24,24.03L5.98,46.05z M50.73,10.64l-4.67-4.67L24.04,23.99l8.67,8.67L50.73,10.64z"/>
</g>
</svg>
