<?xml version="1.0" encoding="utf-8"?>
<!-- Generator: Adobe Illustrator 12.0.1, SVG Export Plug-In . SVG Version: 6.00 Build 51448)  -->
<!DOCTYPE svg PUBLIC "-//W3C//DTD SVG 1.1//EN" "http://www.w3.org/Graphics/SVG/1.1/DTD/svg11.dtd" [
	<!ENTITY ns_svg "http://www.w3.org/2000/svg">
	<!ENTITY ns_xlink "http://www.w3.org/1999/xlink">
]>
<svg  version="1.1" id="Layer_1" xmlns="&ns_svg;" xmlns:xlink="&ns_xlink;" width="58.69" height="58.69"
	 viewBox="0 0 58.69 58.69" overflow="visible" enable-background="new 0 0 58.69 58.69" xml:space="preserve">
<g>
	<g>
		<path d="M56.69,29.35c0,15.08-12.27,27.35-27.35,27.35C14.27,56.69,2,44.43,2,29.35C2,14.27,14.27,2,29.35,2
			C44.43,2,56.69,14.27,56.69,29.35z M29.35,0C13.16,0,0,13.16,0,29.35c0,16.18,13.16,29.35,29.35,29.35s29.35-13.17,29.35-29.35
			C58.69,13.16,45.53,0,29.35,0z"/>
	</g>
	<g>
		<g>
			<path d="M35.3,46.11H24.11l1,1v-1.56l-0.91,1l1.11-0.09c0.46-0.04,0.88-0.12,1.23-0.24c0.65-0.21,1.18-0.61,1.52-1.17
				c0.31-0.51,0.46-1.13,0.46-1.88V28.93c0-0.67-0.15-1.29-0.46-1.85c-0.3-0.54-0.72-1.01-1.26-1.38c-0.43-0.27-0.95-0.47-1.63-0.63
				c-0.61-0.14-1.19-0.24-1.71-0.27l0.93,1v-1.56l-0.94,1l8.17-0.53l-0.77-0.29l0.33,0.33l-0.29-0.71v18.85
				c0,0.72,0.15,1.35,0.46,1.87c0.31,0.55,0.82,0.97,1.5,1.23c0.34,0.14,0.72,0.27,1.1,0.37c0.38,0.1,0.81,0.17,1.27,0.21l-0.92-1
				v1.56L35.3,46.11z M35.38,44.56c-0.34-0.03-0.65-0.08-0.92-0.15c-0.29-0.08-0.58-0.17-0.87-0.29c-0.27-0.1-0.42-0.22-0.51-0.37
				c-0.13-0.22-0.19-0.51-0.19-0.87V24.03v-0.41l-0.29-0.29L32.27,23l-0.32-0.32l-0.45,0.03l-8.17,0.53l-0.94,0.06v0.94v1.56v0.94
				l0.93,0.06c0.41,0.03,0.88,0.1,1.38,0.22c0.57,0.13,0.85,0.26,0.98,0.35c0.25,0.17,0.46,0.4,0.61,0.68
				c0.14,0.26,0.21,0.55,0.21,0.89v14.24c0,0.37-0.06,0.67-0.17,0.85c-0.05,0.09-0.15,0.21-0.42,0.3c-0.22,0.07-0.47,0.12-0.78,0.14
				l-1.12,0.09l-0.92,0.08c0,0,0,0.92,0,0.92v1.56v1h1H35.3h1v-1v-1.56v-0.92L35.38,44.56z"/>
			<path d="M31.36,14.59c0,0.65-0.21,1.2-0.63,1.68c-0.4,0.45-0.85,0.66-1.42,0.66c-0.51,0-0.94-0.2-1.34-0.63
				c-0.42-0.45-0.62-0.94-0.62-1.5c0-0.61,0.2-1.12,0.62-1.58c0.4-0.43,0.82-0.64,1.33-0.64c0.62,0,1.09,0.19,1.47,0.59
				C31.18,13.59,31.36,14.04,31.36,14.59z M32.24,11.79c-0.76-0.81-1.75-1.22-2.92-1.22c-1.08,0-2.03,0.43-2.81,1.29
				c-0.76,0.83-1.14,1.82-1.14,2.93c0,1.07,0.39,2.03,1.15,2.85c0.78,0.84,1.72,1.27,2.81,1.27c1.14,0,2.15-0.46,2.92-1.34
				c0.75-0.85,1.12-1.86,1.12-3C33.36,13.52,32.98,12.59,32.24,11.79z"/>
		</g>
	</g>
</g>
</svg>
