<?xml version="1.0" encoding="utf-8"?>
<!-- Generator: Adobe Illustrator 12.0.1, SVG Export Plug-In . SVG Version: 6.00 Build 51448)  -->
<!DOCTYPE svg PUBLIC "-//W3C//DTD SVG 1.1//EN" "http://www.w3.org/Graphics/SVG/1.1/DTD/svg11.dtd" [
	<!ENTITY ns_svg "http://www.w3.org/2000/svg">
	<!ENTITY ns_xlink "http://www.w3.org/1999/xlink">
]>
<svg  version="1.1" id="Layer_1" xmlns="&ns_svg;" xmlns:xlink="&ns_xlink;" width="58.69" height="58.69"
	 viewBox="0 0 58.69 58.69" overflow="visible" enable-background="new 0 0 58.69 58.69" xml:space="preserve">
<g>
	<g>
		<path d="M56.69,29.35c0,15.08-12.27,27.34-27.35,27.34S2,44.43,2,29.35C2,14.27,14.27,2,29.35,2S56.69,14.27,56.69,29.35z
			 M29.35,0C13.17,0,0,13.17,0,29.35c0,16.18,13.17,29.34,29.35,29.34s29.35-13.16,29.35-29.34C58.69,13.17,45.53,0,29.35,0z"/>
	</g>
	<g>
		<path d="M46.47,38.62l-5.31-5.31c-1.45-1.44-3.83-1.41-5.31,0.08c0,0-2.68,2.67-2.68,2.67l1.2-0.16l-0.23-0.13l-0.29-0.17
			c-1.71-0.95-3.93-2.19-6.23-4.49c-2.31-2.32-3.55-4.54-4.46-6.16c-0.08-0.15-0.14-0.25-0.2-0.36c-0.04-0.07-0.08-0.14-0.11-0.21
			l-0.17,1.18l1.79-1.79c0,0,0.89-0.88,0.89-0.88c1.48-1.49,1.51-3.87,0.07-5.32c0,0-5.31-5.31-5.31-5.31
			c-1.44-1.44-3.83-1.41-5.32,0.07c-0.01,0.01-1.5,1.51-1.5,1.51l-0.77,0.77l0.84,0.7l-0.1-1.35c-0.56,0.7-1.03,1.52-1.39,2.42
			c-0.34,0.95-0.53,1.73-0.6,2.49c-0.75,6.12,1.99,11.67,9.44,19.13c10.33,10.33,18.8,9.49,19.15,9.45c0.86-0.1,1.67-0.31,2.47-0.62
			c0.86-0.33,1.68-0.79,2.42-1.37l-1.27-0.04l0.7,0.61c0.03,0.03,0.69-0.62,0.69-0.62l1.51-1.48
			C47.88,42.46,47.91,40.07,46.47,38.62l-1.42,1.41c0.67,0.67,0.63,1.78-0.08,2.49c0.01-0.01-1.5,1.47-1.5,1.47l1.36-0.04
			l-0.62-0.54c-0.03-0.03-0.68,0.48-0.68,0.48c-0.58,0.46-1.23,0.82-1.92,1.08c-0.64,0.26-1.28,0.42-1.97,0.5
			c-0.07,0.01-7.85,0.78-17.5-8.88c-6.96-6.97-9.53-12.04-8.86-17.5c0.06-0.61,0.21-1.24,0.48-1.99c0.28-0.69,0.64-1.33,1.08-1.88
			l0.61-0.77l-0.75-0.63l0.02,1.43l1.49-1.51c0.71-0.7,1.83-0.73,2.49-0.07c0,0,5.3,5.31,5.3,5.31c0.67,0.67,0.63,1.78-0.07,2.49
			c0,0-0.88,0.88-0.88,0.88c0,0-1.79,1.79-1.79,1.79l-0.52,0.52l0.35,0.65c0.04,0.08,0.09,0.17,0.14,0.24
			c0.05,0.09,0.1,0.18,0.15,0.26c1.01,1.81,2.33,4.18,4.84,6.69c2.5,2.5,4.86,3.81,6.59,4.77c0.06,0.03,0.36,0.21,0.36,0.21
			l0.22,0.12l0.66,0.37c0,0,0.54-0.53,0.54-0.53l2.68-2.67c0.7-0.71,1.82-0.74,2.48-0.08c0,0,5.31,5.31,5.31,5.31L46.47,38.62z"/>
	</g>
</g>
</svg>
