<?xml version="1.0" encoding="utf-8"?>
<!-- Generator: Adobe Illustrator 12.0.1, SVG Export Plug-In . SVG Version: 6.00 Build 51448)  -->
<!DOCTYPE svg PUBLIC "-//W3C//DTD SVG 1.1//EN" "http://www.w3.org/Graphics/SVG/1.1/DTD/svg11.dtd" [
	<!ENTITY ns_svg "http://www.w3.org/2000/svg">
	<!ENTITY ns_xlink "http://www.w3.org/1999/xlink">
]>
<svg  version="1.1" id="Layer_1" xmlns="&ns_svg;" xmlns:xlink="&ns_xlink;" width="58.69" height="58.69"
	 viewBox="0 0 58.69 58.69" overflow="visible" enable-background="new 0 0 58.69 58.69" xml:space="preserve">
<g>
	<g>
		<path d="M56.69,29.35c0,15.08-12.27,27.35-27.34,27.35C14.27,56.69,2,44.43,2,29.35S14.27,2,29.35,2
			C44.43,2,56.69,14.27,56.69,29.35z M29.35,0C13.17,0,0,13.17,0,29.35s13.17,29.35,29.35,29.35c16.18,0,29.34-13.17,29.34-29.35
			S45.53,0,29.35,0z"/>
	</g>
	<g>
		<path d="M40.73,41.49l3.45-0.93l-0.97-0.26l2.52,2.53l1.12,1.13l0.53-1.5c0.9-2.57,0.26-5.13-1.82-7.21
			c-0.77-0.76-1.68-1.33-2.71-1.7l-0.16-0.06h-0.17l-3.57,0.01l0.71,0.29L26.69,20.79l0.29,0.71l-0.01-4.72v-0.17l-0.06-0.16
			c-0.42-1.18-1.06-2.21-1.91-3.05c-2.33-2.33-5.2-3.06-8.09-2.04l-1.5,0.53L16.54,13l2.89,2.88l-0.26-0.97l-1.05,3.95l0.71-0.71
			l-3.95,1.05l0.96,0.26l-2.89-2.89l-1.16-1.16l-0.5,1.56c-0.93,2.89-0.18,5.83,2.06,8.07c0.88,0.88,1.93,1.53,3.13,1.94l0.16,0.05
			h0.17h4.67l-0.71-0.29L33.72,39.7L33.43,39v3.52v0.17l0.06,0.16c0.38,1.08,0.96,2.01,1.71,2.76c2,2,4.62,2.67,7.19,1.84l1.55-0.5
			l-1.15-1.16l-2.52-2.53l0.26,0.97l0.93-3.45L40.73,41.49z M38.84,44.67l2.52,2.53l0.4-1.66c-1.85,0.6-3.68,0.12-5.15-1.35
			c-0.54-0.54-0.95-1.22-1.24-2.02l0.06,0.33V39v-0.41l-0.29-0.29L22.18,25.33l-0.29-0.29h-0.41h-4.67l0.32,0.05
			c-0.91-0.31-1.7-0.8-2.36-1.46c-1.71-1.71-2.27-3.86-1.57-6.04L11.54,18l2.89,2.89l0.41,0.41l0.56-0.15l3.95-1.05l0.56-0.15
			l0.15-0.56l1.05-3.95l0.15-0.56l-0.41-0.41l-2.89-2.88l-0.38,1.65c2.15-0.76,4.23-0.21,6.01,1.57c0.63,0.63,1.12,1.41,1.44,2.3
			l-0.06-0.33l0.01,4.72l0,0.41l0.29,0.29l12.98,12.99l0.29,0.29l0.42,0l3.57-0.01l-0.34-0.06c0.75,0.27,1.42,0.69,1.97,1.23
			c1.52,1.52,1.98,3.3,1.34,5.13l1.65-0.38l-2.52-2.53l-0.41-0.41l-0.56,0.15l-3.45,0.93l-0.56,0.15l-0.15,0.56l-0.93,3.45
			l-0.15,0.56L38.84,44.67z"/>
	</g>
</g>
</svg>
