<?xml version="1.0" encoding="utf-8"?>
<!-- Generator: Adobe Illustrator 12.0.1, SVG Export Plug-In . SVG Version: 6.00 Build 51448)  -->
<!DOCTYPE svg PUBLIC "-//W3C//DTD SVG 1.1//EN" "http://www.w3.org/Graphics/SVG/1.1/DTD/svg11.dtd" [
	<!ENTITY ns_svg "http://www.w3.org/2000/svg">
	<!ENTITY ns_xlink "http://www.w3.org/1999/xlink">
]>
<svg  version="1.1" id="Layer_1" xmlns="&ns_svg;" xmlns:xlink="&ns_xlink;" width="58.69" height="58.69"
	 viewBox="0 0 58.69 58.69" overflow="visible" enable-background="new 0 0 58.69 58.69" xml:space="preserve">
<g>
	<g>
		<path d="M56.69,29.35c0,15.08-12.27,27.35-27.35,27.35S2,44.42,2,29.35C2,14.27,14.27,2,29.35,2S56.69,14.27,56.69,29.35z
			 M29.35,0C13.17,0,0,13.17,0,29.35s13.17,29.35,29.35,29.35s29.35-13.16,29.35-29.35S45.53,0,29.35,0z"/>
	</g>
	<g>
		<path d="M30.75,38.34v-2.6v-0.91l-0.9-0.09l-3.42-0.34l0.88,0.78c-0.23-1.06-0.65-2.07-1.25-2.99L26,33.39l2.18-2.67l0.57-0.7
			l-0.64-0.64l-1.83-1.84l-0.64-0.64l-0.7,0.57l-2.66,2.18l1.18-0.06c-0.92-0.6-1.93-1.02-2.99-1.25l0.79,0.88l-0.34-3.42l-0.09-0.9
			h-0.91h-2.6h-0.91l-0.09,0.9l-0.34,3.41l0.79-0.88c-1.06,0.23-2.07,0.65-2.99,1.25l1.18,0.06l-2.66-2.18l-0.7-0.57l-0.64,0.64
			l-1.84,1.84l-0.64,0.64l0.57,0.7l2.18,2.66l-0.06-1.18c-0.61,0.92-1.03,1.93-1.25,2.99l0.88-0.79l-3.41,0.34l-0.9,0.09v0.91v2.6
			v0.91l0.9,0.09l3.41,0.34l-0.88-0.78c0.23,1.07,0.65,2.07,1.25,2.99l0.06-1.18l-2.18,2.66l-0.57,0.7l0.64,0.64l1.84,1.84
			l0.64,0.64l0.7-0.57l2.66-2.18l-1.18,0.06c0.92,0.61,1.93,1.03,3,1.25l-0.79-0.88l0.34,3.41l0.09,0.9h0.91h2.6h0.91l0.09-0.9
			l0.34-3.42l-0.79,0.88c1.06-0.22,2.07-0.64,2.99-1.25l-1.18-0.06l2.67,2.18l0.7,0.57l0.64-0.64l1.84-1.84l0.64-0.64l-0.57-0.7
			l-2.18-2.67l0.06,1.18c0.6-0.93,1.03-1.93,1.25-2.99l-0.88,0.79l3.42-0.34l0.9-0.09V38.34z M25.36,38.47
			c-0.18,0.82-0.5,1.6-0.97,2.32l-0.4,0.61l0.46,0.57l2.18,2.67l0.07-1.34l-1.84,1.84l1.34-0.07l-2.67-2.18l-0.57-0.46l-0.61,0.4
			c-0.71,0.47-1.49,0.79-2.31,0.96l-0.72,0.15l-0.07,0.73l-0.34,3.42l1-0.9h-2.6l1,0.9l-0.34-3.41l-0.07-0.73l-0.72-0.15
			c-0.82-0.17-1.6-0.5-2.31-0.97l-0.61-0.4l-0.57,0.47l-2.66,2.18l1.34,0.07l-1.84-1.84l0.07,1.34l2.18-2.66l0.46-0.57l-0.4-0.61
			c-0.47-0.71-0.79-1.5-0.97-2.32l-0.15-0.71l-0.73-0.07l-3.41-0.34l0.9,1v-2.6l-0.9,1l3.41-0.34l0.73-0.07l0.15-0.72
			c0.17-0.82,0.5-1.6,0.97-2.31l0.4-0.61l-0.47-0.57l-2.18-2.66l-0.07,1.34l1.84-1.84l-1.34,0.07l2.66,2.18l0.57,0.46l0.61-0.4
			c0.72-0.47,1.5-0.8,2.32-0.97l0.71-0.15l0.07-0.73L18.31,26l-1,0.9h2.6l-1-0.9l0.34,3.42l0.07,0.73l0.71,0.15
			c0.82,0.18,1.6,0.5,2.32,0.97l0.61,0.4l0.57-0.46l2.66-2.18l-1.34-0.07l1.83,1.84l-0.07-1.34l-2.18,2.67l-0.46,0.57l0.4,0.61
			c0.46,0.71,0.79,1.49,0.97,2.31l0.15,0.71l0.73,0.07l3.42,0.34l-0.9-1v2.6l0.9-1l-3.42,0.34l-0.73,0.07L25.36,38.47z"/>
	</g>
	<g>
		<path d="M50.4,34.65v-2.6v-0.91l-0.9-0.09l-3.42-0.34l0.88,0.79c-0.22-1.06-0.64-2.07-1.25-2.99l-0.06,1.18l2.18-2.67l0.57-0.7
			l-0.64-0.64l-1.84-1.84l-0.64-0.64l-0.7,0.57l-2.67,2.18l1.18-0.06c-0.92-0.61-1.93-1.03-3-1.25l0.79,0.88l-0.34-3.42l-0.09-0.9
			h-0.91h-2.59h-0.9l-0.09,0.9l-0.34,3.42l0.79-0.88c-1.06,0.22-2.07,0.64-3,1.25l1.18,0.06l-2.66-2.18l-0.7-0.57l-0.64,0.64
			l-1.84,1.84l-0.64,0.64l0.57,0.7l2.18,2.66l-0.06-1.18c-0.61,0.92-1.03,1.93-1.25,2.99l0.88-0.79l-3.42,0.34l-0.9,0.09v0.91v2.6
			v0.91l0.9,0.09l3.42,0.34l-0.88-0.79c0.22,1.06,0.65,2.07,1.25,2.99l0.06-1.18l-2.18,2.66l-0.57,0.7l0.64,0.64l1.84,1.84
			l0.64,0.64l0.7-0.57l2.66-2.18l-1.18,0.06c0.92,0.6,1.93,1.02,2.99,1.25l-0.78-0.88l0.34,3.42l0.09,0.9h0.9h2.59h0.91l0.09-0.9
			l0.34-3.42l-0.79,0.88c1.05-0.22,2.06-0.64,2.99-1.24l-1.18-0.07l2.66,2.18l0.7,0.57l0.64-0.64l1.84-1.83l0.64-0.64l-0.57-0.7
			l-2.18-2.67l0.06,1.18c0.6-0.92,1.02-1.92,1.25-2.99l-0.88,0.79l3.42-0.34l0.9-0.09V34.65z M45,34.78
			c-0.18,0.83-0.5,1.6-0.97,2.31l-0.4,0.61l0.46,0.57l2.18,2.67l0.07-1.34l-1.84,1.83l1.34-0.07l-2.66-2.18l-0.56-0.46L42,39.12
			c-0.73,0.47-1.51,0.8-2.32,0.97l-0.72,0.15l-0.07,0.73l-0.34,3.42l1-0.9h-2.59l1,0.9l-0.34-3.42l-0.07-0.72l-0.71-0.15
			c-0.82-0.18-1.6-0.5-2.32-0.97l-0.61-0.4l-0.57,0.46l-2.66,2.18l1.34,0.07l-1.84-1.84l0.07,1.34l2.18-2.66l0.46-0.57l-0.4-0.61
			c-0.47-0.72-0.79-1.49-0.97-2.31l-0.15-0.72l-0.73-0.07l-3.42-0.34l0.9,1v-2.6l-0.9,1l3.42-0.34l0.73-0.07l0.15-0.72
			c0.17-0.82,0.5-1.6,0.97-2.31l0.4-0.61l-0.47-0.57l-2.18-2.66l-0.07,1.34l1.84-1.84l-1.34,0.07l2.66,2.18l0.57,0.47l0.61-0.4
			c0.72-0.47,1.5-0.8,2.31-0.97l0.72-0.15l0.07-0.73l0.34-3.42l-1,0.9h2.59l-1-0.9l0.34,3.42l0.07,0.73l0.72,0.15
			c0.82,0.17,1.6,0.5,2.31,0.97l0.61,0.4l0.57-0.47l2.67-2.18l-1.34-0.07l1.84,1.84l-0.07-1.34l-2.18,2.67l-0.46,0.57l0.4,0.61
			c0.47,0.72,0.79,1.49,0.96,2.31l0.15,0.72l0.73,0.07l3.42,0.34l-0.9-1v2.6l0.9-1l-3.42,0.34l-0.73,0.07L45,34.78z"/>
	</g>
	<g>
		<path d="M40.63,16.24c-0.02-0.46-0.09-0.92-0.21-1.37l-0.33,1.03l2.46-2.04l0.68-0.56l-0.47-0.74l-1.32-2.08l-0.47-0.74l-0.8,0.37
			l-2.91,1.36l1.06,0.14c-0.7-0.58-1.51-1-2.4-1.25l0.72,0.8l-0.54-3.17L35.97,7.1l-0.88,0.04l-2.46,0.1l-0.88,0.04l-0.08,0.88
			l-0.28,3.2l0.66-0.85c-0.87,0.31-1.64,0.8-2.3,1.44l1.05-0.22l-3.01-1.12l-0.83-0.31l-0.41,0.78l-1.15,2.19L25,14.04l0.72,0.5
			l2.62,1.83l-0.41-0.98c-0.08,0.49-0.11,0.93-0.1,1.36c0.02,0.47,0.09,0.93,0.21,1.37l0.33-1.03l-2.46,2.03l-0.68,0.56l0.47,0.75
			l1.32,2.08l0.47,0.74l0.8-0.37l2.9-1.36l-1.07-0.14c0.69,0.58,1.53,1.02,2.42,1.26l-0.72-0.8l0.53,3.17l0.15,0.87l0.88-0.03
			l2.46-0.1l0.88-0.04l0.08-0.88l0.28-3.2l-0.65,0.85c0.86-0.31,1.63-0.8,2.29-1.45l-1.05,0.22l3.01,1.12l0.83,0.31l0.41-0.78
			l1.14-2.18l0.41-0.78l-0.72-0.5l-2.63-1.83l0.41,1.01C40.62,17.15,40.65,16.68,40.63,16.24z M38.97,18.26l2.63,1.83l-0.31-1.29
			l-1.14,2.18l1.23-0.47l-3.01-1.12l-0.59-0.22l-0.45,0.44c-0.46,0.45-0.99,0.79-1.58,1l-0.6,0.22l-0.05,0.63l-0.28,3.2l0.96-0.91
			l-2.46,0.1l1.03,0.83l-0.53-3.17l-0.11-0.63l-0.62-0.17c-0.61-0.17-1.19-0.46-1.66-0.86l-0.49-0.41l-0.58,0.27l-2.9,1.36
			l1.27,0.37l-1.32-2.08l-0.21,1.31l2.46-2.03l0.49-0.41l-0.17-0.62c-0.08-0.31-0.13-0.63-0.15-0.94c-0.01-0.28,0.01-0.6,0.07-0.95
			l0.1-0.62l-0.52-0.36l-2.62-1.83l0.31,1.28L28.33,12l-1.24,0.47l3.01,1.12l0.59,0.22l0.45-0.44c0.45-0.44,0.99-0.78,1.58-0.99
			l0.6-0.22l0.05-0.64l0.28-3.2l-0.96,0.91l2.46-0.1L34.14,8.3l0.54,3.17l0.11,0.63l0.61,0.17c0.62,0.17,1.18,0.46,1.66,0.86
			l0.49,0.41l0.58-0.27l2.91-1.36l-1.27-0.37l1.32,2.08l0.21-1.31l-2.46,2.04l-0.49,0.41l0.16,0.62c0.08,0.31,0.13,0.63,0.14,0.93
			c0.01,0.3-0.01,0.61-0.07,0.93l-0.12,0.64L38.97,18.26z"/>
	</g>
</g>
</svg>
