<?xml version="1.0" encoding="utf-8"?>
<!-- Generator: Adobe Illustrator 12.0.1, SVG Export Plug-In . SVG Version: 6.00 Build 51448)  -->
<!DOCTYPE svg PUBLIC "-//W3C//DTD SVG 1.1//EN" "http://www.w3.org/Graphics/SVG/1.1/DTD/svg11.dtd" [
	<!ENTITY ns_svg "http://www.w3.org/2000/svg">
	<!ENTITY ns_xlink "http://www.w3.org/1999/xlink">
]>
<svg  version="1.1" id="Layer_1" xmlns="&ns_svg;" xmlns:xlink="&ns_xlink;" width="58.69" height="58.69"
	 viewBox="0 0 58.69 58.69" overflow="visible" enable-background="new 0 0 58.69 58.69" xml:space="preserve">
<g>
	<g>
		<path d="M56.69,29.35c0,15.08-12.27,27.35-27.35,27.35S2,44.43,2,29.35C2,14.27,14.27,2,29.35,2S56.69,14.27,56.69,29.35z
			 M29.35,0C13.17,0,0,13.16,0,29.35c0,16.18,13.17,29.35,29.35,29.35s29.35-13.17,29.35-29.35C58.69,13.16,45.53,0,29.35,0z"/>
	</g>
	<g>
		<path d="M48.12,45.48c-0.01-0.08,0.02-0.15,0.06-0.2c0.02-0.02,0.04-0.03,0.07-0.03H14.79c0.08,0,0.14,0.06,0.14,0.14
			c0,0.02,0.61-35.42,0.61-35.42c0,0.02,0.01,0,0.01-0.01c-0.03,0.05-0.21,0.15-0.42,0.09c-0.03-0.01,30.38,9.74,30.38,9.74
			c0.18,0.05,0.22,0.09,0.23,0.09c-0.02-0.02-0.05-0.06-0.05-0.09C45.68,19.78,48.12,45.47,48.12,45.48z M47.67,19.59
			c-0.06-0.59-0.38-1.37-1.57-1.72c0.02,0.01-30.39-9.74-30.39-9.74c-0.48-0.14-0.96-0.05-1.35,0.23c-0.47,0.34-0.78,0.91-0.81,1.53
			c0,0.04-0.61,35.48-0.61,35.48c0,1.04,0.84,1.88,1.86,1.88h33.46c0.54,0,1.05-0.23,1.41-0.62c0.34-0.37,0.5-0.85,0.45-1.34
			C50.11,45.28,47.67,19.6,47.67,19.59z"/>
	</g>
	<g>
		<path d="M35.1,43.73c0,0.59-0.27,1.07-0.61,1.07s-0.61-0.48-0.61-1.07c0-0.59,0.27-1.07,0.61-1.07S35.1,43.14,35.1,43.73z"/>
	</g>
	<g>
		<path d="M46.67,19.69c-0.05-0.48-0.38-0.72-0.86-0.86L15.4,9.08c-0.43-0.12-0.83,0.34-0.86,0.86l-0.53,30.73l34.8,1.49
			L46.67,19.69z M15.45,10.22l30.39,9.37l2.06,21.63l-32.82-1.75L15.45,10.22z"/>
	</g>
	<g>
		<path fill="none" d="M7.07,26.98"/>
	</g>
	<g>
		<g>
			<path d="M22.17,47.88c-0.09,0.35-0.35,1.56-0.12,2.38c0.19,0.66,0.5,1.77,1.89,1.97c0.69,0.1,5.81,0.66,6.22,0.69
				c0.28,0.02,0.71,0.01,1.13,0.01l0.51-0.01c0.49,0,8.02-0.44,9.53-0.53l0.04-1.99l-8.91-0.91c0.04,0-0.52-0.1-0.55-0.46
				c-0.04-0.43-0.03-1.04,0.02-1.56c0.03-0.28,0.08-0.65,0.13-1.08l0.16-1.14h-1.15h-7.33h-0.73l-0.22,0.69
				C22.79,45.94,22.19,47.82,22.17,47.88z M23.74,47.24h7.33l-0.99-1.14c-0.06,0.46-0.11,0.84-0.14,1.15
				c-0.05,0.51-0.08,1.29-0.02,1.94c0.14,1.54,1.56,2.16,2.29,2.27c0.05,0.01,8.96,0.92,8.96,0.92l0.04-1.99
				c-3.57,0.21-9.03,0.53-9.41,0.53c0,0-0.54,0.01-0.54,0.01c-0.34,0-0.76,0.01-0.95,0c-0.33-0.02-5.35-0.58-6.08-0.68
				c-0.06-0.01-0.08-0.02-0.08-0.02c0.01,0,0.02,0.01,0.03,0.02c-0.06-0.07-0.14-0.37-0.18-0.53c-0.06-0.2,0.01-0.85,0.14-1.37
				c-0.02,0.07,0.58-1.81,0.58-1.81L23.74,47.24z"/>
		</g>
	</g>
</g>
</svg>
