<?xml version="1.0" encoding="utf-8"?>
<!-- Generator: Adobe Illustrator 12.0.1, SVG Export Plug-In . SVG Version: 6.00 Build 51448)  -->
<!DOCTYPE svg PUBLIC "-//W3C//DTD SVG 1.1//EN" "http://www.w3.org/Graphics/SVG/1.1/DTD/svg11.dtd" [
	<!ENTITY ns_svg "http://www.w3.org/2000/svg">
	<!ENTITY ns_xlink "http://www.w3.org/1999/xlink">
]>
<svg  version="1.1" id="Layer_1" xmlns="&ns_svg;" xmlns:xlink="&ns_xlink;" width="58.69" height="58.69"
	 viewBox="0 0 58.69 58.69" overflow="visible" enable-background="new 0 0 58.69 58.69" xml:space="preserve">
<g>
	<g>
		<path d="M56.69,29.35c0,15.08-12.27,27.35-27.35,27.35C14.27,56.69,2,44.43,2,29.35C2,14.27,14.27,2,29.35,2
			C44.43,2,56.69,14.27,56.69,29.35z M29.35,0C13.16,0,0,13.17,0,29.35c0,16.18,13.16,29.35,29.35,29.35
			c16.18,0,29.35-13.16,29.35-29.35C58.69,13.17,45.53,0,29.35,0z"/>
	</g>
	<g>
		<path d="M47.9,42.56c0-0.04-0.13-1.06-0.51-2.95c-0.2-1-0.73-3.64-14.32-4.91l0.89,0.8c-0.18-0.88-0.01-2.83,0.22-4.27l-0.49,0.71
			c0.46-0.26,0.82-0.51,1.13-0.79c1.85-1.61,2.89-5.62,3-6.08l-0.71,0.72c0.21-0.06,2.02-0.64,2.48-3.82
			c0.18-1.25-0.07-2.14-0.74-2.65c-0.94-0.71-2.14-0.22-2.28-0.16l1.4,0.85c-0.01-0.11-0.01-0.26-0.01-0.31
			c-0.02-2.8-0.85-4.97-2.48-6.45c-2.48-2.25-5.86-2.02-6.23-1.99h0.18c-0.38-0.03-3.75-0.27-6.23,1.99
			c-1.63,1.48-2.46,3.65-2.47,6.44c0,0.06-0.01,0.21-0.01,0.32l1.4-0.85c-0.13-0.06-1.34-0.55-2.27,0.16
			c-0.67,0.51-0.92,1.4-0.74,2.65c0.46,3.18,2.27,3.77,2.48,3.82l-0.71-0.72c0.11,0.45,1.15,4.46,3,6.08
			c0.32,0.28,0.68,0.53,1.13,0.79l-0.49-0.71c0.18,1.11,0.42,3.26,0.22,4.27l0.89-0.8c-13.58,1.27-14.12,3.91-14.31,4.91
			c-0.38,1.89-0.51,2.91-0.51,2.95l1.98,0.25l0,0c0-0.01,0.13-1,0.49-2.8c0.15-0.75,2.97-2.42,12.54-3.31l0.74-0.07l0.15-0.73
			c0.31-1.51-0.08-4.2-0.2-4.98l-0.08-0.47l-0.42-0.24c-0.34-0.19-0.6-0.37-0.81-0.56c-1.17-1.02-2.13-4.06-2.38-5.05l-0.14-0.57
			l-0.57-0.15c0.04,0.01-0.76-0.33-1.02-2.18c-0.09-0.63,0.01-0.82,0.01-0.82c-0.02,0.03-0.07,0.06-0.1,0.07
			c0.06-0.01,0.22,0.02,0.33,0.06l1.29,0.52c0.01,0.01,0.1-1.38,0.1-1.38c0-0.05,0.02-0.29,0.02-0.44c0.01-2.21,0.63-3.88,1.82-4.97
			c1.88-1.71,4.68-1.48,4.71-1.48l0.09,0.01l0.09-0.01c0.03,0,2.83-0.23,4.71,1.48c1.2,1.09,1.81,2.76,1.82,4.97
			c0,0.14,0.01,0.38,0.02,0.43l0.09,1.43L37.38,21c0.09-0.04,0.26-0.07,0.32-0.05c-0.03-0.01-0.08-0.04-0.1-0.07
			c0,0,0.1,0.19,0.01,0.82c-0.26,1.85-1.06,2.19-1.07,2.19l-0.57,0.15c0.05-0.02-0.09,0.55-0.09,0.55c-0.26,1.06-1.2,4.03-2.38,5.05
			c-0.22,0.19-0.47,0.37-0.81,0.56l-0.42,0.24l-0.08,0.47C32.08,31.7,31.7,34.38,32,35.9l0.15,0.73l0.74,0.07
			c9.57,0.89,12.39,2.56,12.54,3.31c0.36,1.81,0.49,2.79,0.49,2.8L47.9,42.56z"/>
	</g>
</g>
</svg>
