<?xml version="1.0" encoding="utf-8"?>
<!-- Generator: Adobe Illustrator 12.0.1, SVG Export Plug-In . SVG Version: 6.00 Build 51448)  -->
<!DOCTYPE svg PUBLIC "-//W3C//DTD SVG 1.1//EN" "http://www.w3.org/Graphics/SVG/1.1/DTD/svg11.dtd" [
	<!ENTITY ns_svg "http://www.w3.org/2000/svg">
	<!ENTITY ns_xlink "http://www.w3.org/1999/xlink">
]>
<svg  version="1.1" id="Layer_1" xmlns="&ns_svg;" xmlns:xlink="&ns_xlink;" width="58.69" height="58.69"
	 viewBox="0 0 58.69 58.69" overflow="visible" enable-background="new 0 0 58.69 58.69" xml:space="preserve">
<g>
	<g>
		<path d="M56.69,29.35c0,15.08-12.27,27.34-27.35,27.34S2,44.43,2,29.35C2,14.27,14.27,2,29.35,2S56.69,14.27,56.69,29.35z
			 M29.35,0C13.17,0,0,13.17,0,29.35c0,16.18,13.17,29.34,29.35,29.34s29.35-13.16,29.35-29.34C58.69,13.17,45.53,0,29.35,0z"/>
	</g>
	<g>
		<g>
			<path d="M45.95,40.22c0,1.28-1.02,2.32-2.27,2.32h-28.7c-1.25,0-2.27-1.04-2.27-2.32V18.48c0-1.28,1.02-2.32,2.27-2.32h28.7
				c1.25,0,2.27,1.04,2.27,2.32V40.22z M47.95,18.48c0-2.38-1.92-4.32-4.27-4.32h-28.7c-2.35,0-4.27,1.94-4.27,4.32v21.74
				c0,2.38,1.92,4.32,4.27,4.32h28.7c2.35,0,4.27-1.94,4.27-4.32V18.48z"/>
		</g>
		<g>
			<g>
				<path d="M10.76,18.32c-0.03,0.17-0.62,4.19,3.04,6.75c3.1,2.17,11.03,7.59,12.21,8.36l0.28,0.18c1.04,0.69,1.56,1,3.09,1v-2
					c-0.98,0-1.13-0.1-1.98-0.66l-0.29-0.19c-1.05-0.7-8.88-6.04-12.16-8.33c-2.64-1.85-2.21-4.76-2.21-4.79L10.76,18.32z"/>
			</g>
			<g>
				<path d="M45.96,18.63L45.96,18.63c0.02,0.11,0.4,2.97-2.21,4.79c-3.27,2.29-11.1,7.63-12.16,8.33l-0.28,0.19
					c-0.85,0.57-1,0.67-1.98,0.67v2c1.52,0,2.04-0.31,3.09-1l0.27-0.18c1.19-0.78,9.11-6.2,12.21-8.36
					c3.66-2.56,3.07-6.58,3.04-6.75L45.96,18.63z"/>
			</g>
		</g>
		<g>
			<g>
				<rect x="9.51" y="34.75" transform="matrix(-0.7041 0.7101 -0.7101 -0.7041 55.1619 48.5114)" width="15.93" height="2"/>
			</g>
			<g>
				<rect x="33.25" y="34.75" transform="matrix(0.7041 0.7101 -0.7101 0.7041 37.5782 -18.689)" width="15.93" height="2"/>
			</g>
		</g>
	</g>
</g>
</svg>
