<?xml version="1.0" encoding="utf-8"?>
<!-- Generator: Adobe Illustrator 12.0.1, SVG Export Plug-In . SVG Version: 6.00 Build 51448)  -->
<!DOCTYPE svg PUBLIC "-//W3C//DTD SVG 1.1//EN" "http://www.w3.org/Graphics/SVG/1.1/DTD/svg11.dtd" [
	<!ENTITY ns_svg "http://www.w3.org/2000/svg">
	<!ENTITY ns_xlink "http://www.w3.org/1999/xlink">
]>
<svg  version="1.1" id="Layer_1" xmlns="&ns_svg;" xmlns:xlink="&ns_xlink;" width="58.69" height="58.69"
	 viewBox="0 0 58.69 58.69" overflow="visible" enable-background="new 0 0 58.69 58.69" xml:space="preserve">
<g>
	<g>
		<path d="M56.69,29.35c0,15.08-12.27,27.35-27.35,27.35S2,44.43,2,29.35C2,14.27,14.27,2,29.35,2S56.69,14.27,56.69,29.35z
			 M29.35,0C13.17,0,0,13.16,0,29.35c0,16.18,13.17,29.35,29.35,29.35s29.35-13.17,29.35-29.35C58.69,13.16,45.53,0,29.35,0z"/>
	</g>
	<g>
		<path d="M51.79,29.52c0-6.65-7.25-12.06-16.16-12.06c-8.91,0-16.16,5.41-16.16,12.06s7.25,12.06,16.16,12.06
			c0.22,0,0.41-0.02,0.58-0.04c0.11-0.01,0.21-0.02,0.31-0.03c-0.2,0.01-0.39-0.04-0.56-0.15c2.31,1.41,6.89,3.63,11.6,2.62
			c0.46-0.1,0.79-0.51,0.79-0.98c0-0.47-0.34-0.88-0.8-0.97c-0.02,0-2.71-0.6-4.26-3.2c0.15,0.26,0.18,0.57,0.08,0.85
			c-0.1,0.28-0.32,0.5-0.6,0.61C48.33,38.24,51.79,34.12,51.79,29.52z M41.57,39.87c2.02,3.38,5.44,4.1,5.58,4.13
			c-0.46-0.09-0.8-0.5-0.8-0.97c0-0.47,0.33-0.88,0.79-0.98c-4.03,0.86-8.08-1.12-10.14-2.38c-0.17-0.1-0.36-0.15-0.56-0.15
			c-0.16,0.01-0.3,0.02-0.43,0.03c-0.14,0.01-0.27,0.03-0.38,0.03c-7.81,0-14.16-4.51-14.16-10.06c0-5.55,6.35-10.06,14.16-10.06
			s14.16,4.51,14.16,10.06c0,3.73-2.95,7.14-7.71,8.9c-0.28,0.1-0.5,0.33-0.6,0.61C41.39,39.31,41.42,39.62,41.57,39.87z"/>
	</g>
	<g>
		<path d="M21.47,29.52c0-5.14,5.64-9.53,12.83-10.01c0.41-0.03,0.77-0.31,0.89-0.7c0.12-0.4-0.01-0.83-0.34-1.08
			c-3.08-2.43-7.25-3.77-11.72-3.77c-8.91,0-16.16,5.41-16.16,12.06c0,4.59,3.45,8.72,9.01,10.78c-0.28-0.1-0.5-0.33-0.6-0.61
			c-0.1-0.28-0.07-0.59,0.08-0.85c-1.55,2.6-4.24,3.19-4.26,3.2c-0.46,0.1-0.8,0.51-0.8,0.98c0,0.47,0.33,0.88,0.79,0.98
			c4.71,1.01,9.29-1.21,11.6-2.62c-0.17,0.1-0.36,0.15-0.56,0.15c0.09,0,0.2,0.01,0.31,0.03c0.17,0.02,0.37,0.04,0.58,0.04
			c0.45,0,0.93-0.02,1.46-0.05c0.41-0.03,0.77-0.31,0.89-0.7s-0.01-0.83-0.34-1.08C22.78,34.38,21.47,32,21.47,29.52z M24.46,36.04
			c-0.49,0.03-0.92,0.05-1.33,0.05c-0.11,0-0.24-0.01-0.38-0.03c-0.13-0.01-0.27-0.03-0.43-0.03c-0.2-0.01-0.39,0.04-0.56,0.15
			c-2.06,1.26-6.11,3.24-10.14,2.38c0.46,0.1,0.79,0.51,0.79,0.98c0,0.47-0.34,0.88-0.8,0.97c0.14-0.03,3.56-0.75,5.58-4.13
			c0.15-0.25,0.18-0.57,0.08-0.85c-0.1-0.28-0.32-0.5-0.6-0.61c-4.75-1.75-7.7-5.16-7.7-8.9c0-5.55,6.35-10.06,14.16-10.06
			c3.97,0,7.79,1.22,10.49,3.34c-0.33-0.26-0.46-0.69-0.34-1.08c0.12-0.4,0.48-0.67,0.89-0.7c-8.38,0.56-14.7,5.72-14.7,12.01
			c0,3.1,1.57,6.05,4.43,8.3c-0.33-0.26-0.46-0.69-0.34-1.08S24.04,36.06,24.46,36.04z"/>
	</g>
</g>
</svg>
